<?xml version="1.0" encoding="UTF-8" standalone="no"?>
<!-- Created with Inkscape (http://www.inkscape.org/) -->

<svg
   xmlns:dc="http://purl.org/dc/elements/1.1/"
   xmlns:cc="http://creativecommons.org/ns#"
   xmlns:rdf="http://www.w3.org/1999/02/22-rdf-syntax-ns#"
   xmlns:svg="http://www.w3.org/2000/svg"
   xmlns="http://www.w3.org/2000/svg"
   xmlns:sodipodi="http://sodipodi.sourceforge.net/DTD/sodipodi-0.dtd"
   xmlns:inkscape="http://www.inkscape.org/namespaces/inkscape"
   width="246"
   height="70"
   id="svg6757"
   version="1.1"
   inkscape:version="0.48.4 r9939"
   sodipodi:docname="New document 121">
  <defs
     id="defs6759" />
  <sodipodi:namedview
     id="base"
     pagecolor="#ffffff"
     bordercolor="#666666"
     borderopacity="1.0"
     inkscape:pageopacity="0.0"
     inkscape:pageshadow="2"
     inkscape:zoom="1.4142136"
     inkscape:cx="225.98909"
     inkscape:cy="58.720398"
     inkscape:document-units="px"
     inkscape:current-layer="layer1"
     showgrid="false"
     inkscape:snap-bbox="true"
     inkscape:snap-global="true"
     inkscape:snap-page="true"
     fit-margin-top="0"
     fit-margin-left="0"
     fit-margin-right="0"
     fit-margin-bottom="0"
     inkscape:window-width="1105"
     inkscape:window-height="665"
     inkscape:window-x="717"
     inkscape:window-y="520"
     inkscape:window-maximized="0" />
  <metadata
     id="metadata6762">
    <rdf:RDF>
      <cc:Work
         rdf:about="">
        <dc:format>image/svg+xml</dc:format>
        <dc:type
           rdf:resource="http://purl.org/dc/dcmitype/StillImage" />
        <dc:title></dc:title>
      </cc:Work>
    </rdf:RDF>
  </metadata>
  <g
     inkscape:label="Layer 1"
     inkscape:groupmode="layer"
     id="layer1"
     transform="translate(-2.9873036e-8,-982.36215)">
    <g
       id="g6868"
       transform="matrix(1.084735,0,0,1.084735,-1.6041896,-87.335478)">
      <path
         sodipodi:nodetypes="czzzzzzzzzc"
         inkscape:connector-curvature="0"
         id="path3939-93-6-6-8-7-8-3-5"
         d="m 36.927823,1027.3484 c -3.469628,-2.8462 0.179595,-19.5628 4.546288,-19.5535 4.366919,0.011 7.104378,12.6422 7.768971,19.5535 0.664822,6.9113 3.418691,19.5535 7.768973,19.5535 4.350284,0 7.104378,-12.6422 7.768969,-19.5535 0.664822,-6.9113 3.418808,-19.5535 7.768973,-19.5535 4.350403,0 7.104381,12.6422 7.768973,19.5535 0.664822,6.9113 3.418808,19.5535 7.768973,19.5535 4.350399,0 7.104382,-12.6422 7.768973,-19.5535 0.66482,-6.9113 3.429513,-19.5446 7.768974,-19.5535 4.33957,-0.011 3.2563,16.8308 8.32724,19.5535"
         style="color:#000000;fill:#7d7dff;fill-opacity:0.84474888;fill-rule:nonzero;stroke:#000000;stroke-width:7.40716076;stroke-linecap:round;stroke-linejoin:round;stroke-miterlimit:4;stroke-opacity:1;stroke-dasharray:none;marker:none;visibility:visible;display:inline;overflow:visible;enable-background:accumulate" />
      <g
         transform="matrix(1.1395632,0,0,1.1395632,-1011.1942,526.56232)"
         id="text2985-5-3-4-3-3-9-9-9-8"
         style="font-size:73.52677155px;font-style:normal;font-variant:normal;font-weight:bold;font-stretch:normal;text-align:start;line-height:125%;letter-spacing:0px;word-spacing:0px;writing-mode:lr-tb;text-anchor:start;fill:#000000;fill-opacity:1;stroke:none;font-family:Droid Arabic Naskh;-inkscape-font-specification:Droid Arabic Naskh Bold">
        <path
           sodipodi:nodetypes="ccccccssccsccccccccccccc"
           inkscape:connector-curvature="0"
           id="path5421-4-2-4-5"
           d="m 909.0065,451.19496 c 1.07703,1e-5 2.09424,-0.11966 3.05165,-0.35902 0.98129,-0.23933 1.97457,-0.53851 2.97984,-0.89754 l 0,5.48628 c 0,1.86056 -0.45455,2.88879 -1.52826,3.31126 -0.69404,0.24422 -1.46511,0.4591 -2.31322,0.64462 -1.5079,0.35902 -3.15938,0.53852 -4.95444,0.53852 -1.74724,0 -3.37478,-0.20344 -4.88264,-0.61032 -1.50789,-0.40689 -2.81232,-1.11296 -3.91329,-2.11821 -1.101,-1.02918 -1.97461,-2.39344 -2.62083,-4.0928 -0.6223,-1.72327 -0.93345,-3.87738 -0.93344,-6.46231 l 0,-19.35104 -5.24166,0 0,-4.63133 6.03149,-3.66197 3.15936,-8.47281 7.00084,0 0,8.54461 9.76527,0 -3.53553,8.2215 -6.22974,0 0,19.35104 c -2e-5,1.55575 0.38293,2.70461 1.14885,3.44657 0.76589,0.74197 1.77114,1.11296 3.01575,1.11295" />
      </g>
      <path
         sodipodi:nodetypes="ccccccccccccccccccccssccc"
         inkscape:connector-curvature="0"
         id="path5411-1-19-5-6"
         d="m 127.60253,986.19802 c -0.92727,7e-5 -1.82536,0.094 -2.67091,0.28488 -0.81821,0.191 -1.54491,0.50623 -2.17224,0.99712 -0.59998,0.46374 -1.07004,1.0965 -1.42445,1.88741 -0.35474,0.76375 -0.53434,1.74737 -0.53422,2.92013 -1.2e-4,1.14561 0.17948,2.09361 0.53422,2.88451 0.35441,0.79104 0.82447,1.43212 1.42445,1.92302 0.62733,0.46373 1.35403,0.81459 2.17224,1.03274 0.84555,0.19099 1.74364,0.28494 2.67091,0.28488 0.92737,6e-5 1.78125,-0.0939 2.59958,-0.28488 0.8182,-0.21815 1.53657,-0.56901 2.13667,-1.03274 0.62733,-0.4909 1.10538,-1.13198 1.46001,-1.92302 0.38175,-0.7909 0.56978,-1.7389 0.56978,-2.88451 1.1e-4,-1.17276 -0.18791,-2.15638 -0.56978,-2.92013 -0.35463,-0.79091 -0.83268,-1.42367 -1.46001,-1.88741 -0.6001,-0.49089 -1.31847,-0.80612 -2.13667,-0.99712 -0.81833,-0.19088 -1.67232,-0.28481 -2.59958,-0.28488 z m -6.2676,17.91248 0,45.7249 2.74201,0 7.83451,0 c 1.06025,0 1.88734,-1.7173 1.88734,-2.7776 l 0,-7.6565 0,-35.2908 z"
         style="font-size:73.52677155px;font-style:normal;font-variant:normal;font-weight:bold;font-stretch:normal;text-align:start;line-height:125%;letter-spacing:0px;word-spacing:0px;writing-mode:lr-tb;text-anchor:start;fill:#000000;fill-opacity:1;stroke:none;font-family:Droid Arabic Naskh;-inkscape-font-specification:Droid Arabic Naskh Bold" />
      <path
         sodipodi:nodetypes="ccccccccccsscccccccsccsscscccc"
         inkscape:connector-curvature="0"
         id="path5413-6-99-7-1"
         d="m 166.52374,1003.2559 c -1.30925,0 -2.59136,0.1189 -3.84603,0.3917 -1.25466,0.2455 -2.44288,0.6653 -3.56114,1.2108 -1.11835,0.5455 -2.14363,1.2199 -3.09812,2.0655 -0.9276,0.8454 -1.73134,1.8541 -2.38602,3.0269 l -0.67668,0 -1.67367,-5.8403 -9.54384,0 0,45.7249 2.74213,0 7.8345,0 c 1.06025,0 1.88734,-1.7173 1.88734,-2.7776 l 0,-7.6565 0,-11.0751 c -1.2e-4,-2.4274 0.15453,-4.5992 0.42734,-6.4812 0.27269,-1.882 0.7259,-3.4543 1.35323,-4.7364 0.65457,-1.2818 1.50856,-2.2298 2.59969,-2.8845 1.09068,-0.6545 2.45872,-0.997 4.09524,-0.9971 2.18204,10e-5 3.79008,0.8291 4.77192,2.4928 1.0092,1.6366 1.49568,4.1069 1.49568,7.4072 l 0,26.7084 2.74213,0 7.8345,0 c 1.06013,0 1.88734,-1.7173 1.88734,-2.7776 l 0,-7.6565 0,-19.3726 c 0,-2.9455 -0.32375,-5.4849 -1.03267,-7.5852 -0.70949,-2.1273 -1.71778,-3.871 -3.02701,-5.2347 -1.30914,-1.3638 -2.90898,-2.3641 -4.73638,-2.9914 -1.82728,-0.6546 -3.85297,-0.9615 -6.08948,-0.9615 z"
         style="font-size:73.52677155px;font-style:normal;font-variant:normal;font-weight:bold;font-stretch:normal;text-align:start;line-height:125%;letter-spacing:0px;word-spacing:0px;writing-mode:lr-tb;text-anchor:start;fill:#000000;fill-opacity:1;stroke:none;font-family:Droid Arabic Naskh;-inkscape-font-specification:Droid Arabic Naskh Bold" />
      <path
         sodipodi:nodetypes="cccccccccsccscccccccsccccccccccccc"
         d="m 208.61773,1012.1241 c -2.20939,0 -4.05035,0.7773 -5.52324,2.3319 -1.44554,1.5547 -2.27742,3.9958 -2.49565,7.3233 l 15.91492,0 c -0.0274,-1.391 -0.20455,-2.6729 -0.53184,-3.8457 -0.32739,-1.1728 -0.81831,-2.182 -1.47288,-3.0276 -0.65457,-0.8727 -1.47289,-1.5545 -2.45473,-2.0455 -0.98197,-0.491 -2.12745,-0.7364 -3.43658,-0.7364 m 1.59549,38.5394 c -3.27294,0 -6.28686,-0.4774 -9.04163,-1.4319 -2.75478,-0.9546 -5.12769,-2.3867 -7.11874,-4.2958 -1.99104,-1.9365 -3.54575,-4.364 -4.664,-7.2824 -1.0909,-2.9458 -1.63641,-6.3961 -1.63641,-10.3509 0,-4.0094 0.50459,-7.5142 1.51368,-10.5145 1.00919,-3.0002 2.41382,-5.4958 4.21398,-7.487 1.82742,-2.0182 4.00944,-3.532 6.546,-4.5412 2.56379,-1.0091 5.40039,-1.5136 8.5098,-1.5138 3.02748,2e-4 5.75491,0.4638 8.18241,1.391 2.45474,0.9002 4.52759,2.2367 6.21871,4.0095 1.71823,1.7729 3.02748,3.9549 3.9275,6.5459 0.92738,2.564 1.39106,5.5096 1.39106,8.8372 0,2.8454 0.30803,6.0549 -3.22313,6.0549 l -24.67907,0 c 0.0546,1.7457 0.32729,3.3276 0.81821,4.7458 0.51827,1.3911 1.22742,2.5776 2.12745,3.5594 0.92737,0.9546 2.03196,1.691 3.31396,2.2093 1.30914,0.5182 2.79558,0.7774 4.45945,0.7774 1.39096,0 2.7002,-0.068 3.92752,-0.2047 1.25465,-0.1637 2.4684,-0.3953 3.64124,-0.6954 6.11832,-2.5663 6.98005,2.0614 6.99601,6.9551 -1.09103,0.5727 -2.19572,1.0637 -3.31396,1.4728 -1.09103,0.3819 -2.25019,0.7092 -3.4775,0.982 -1.22742,0.2727 -2.55023,0.4636 -3.96853,0.5727 -1.4183,0.1364 -2.97301,0.2046 -4.66401,0.2046"
         style="font-size:73.52677155px;font-style:normal;font-variant:normal;font-weight:bold;font-stretch:normal;text-align:start;line-height:125%;letter-spacing:0px;word-spacing:0px;writing-mode:lr-tb;text-anchor:start;fill:#000000;fill-opacity:1;stroke:none;font-family:Droid Arabic Naskh;-inkscape-font-specification:Droid Arabic Naskh Bold"
         id="path5415-06-88-1-9"
         inkscape:connector-curvature="0" />
    </g>
  </g>
</svg>
