<?xml version="1.0" encoding="UTF-8" standalone="no"?>
<!-- from https://github.com/CodeCharmLtd/Font-Awesome-SVG-PNG -->

<svg
   xmlns:dc="http://purl.org/dc/elements/1.1/"
   xmlns:cc="http://creativecommons.org/ns#"
   xmlns:rdf="http://www.w3.org/1999/02/22-rdf-syntax-ns#"
   xmlns:svg="http://www.w3.org/2000/svg"
   xmlns="http://www.w3.org/2000/svg"
   xmlns:sodipodi="http://sodipodi.sourceforge.net/DTD/sodipodi-0.dtd"
   xmlns:inkscape="http://www.inkscape.org/namespaces/inkscape"
   width="2048"
   height="2048"
   viewBox="-192 -384 2048 2048"
   id="svg3022"
   version="1.1"
   inkscape:version="0.48.4 r9939"
   sodipodi:docname="volume-up.svg">
  <metadata
     id="metadata3032">
    <rdf:RDF>
      <cc:Work
         rdf:about="">
        <dc:format>image/svg+xml</dc:format>
        <dc:type
           rdf:resource="http://purl.org/dc/dcmitype/StillImage" />
        <dc:title />
        <dc:source>https://github.com/CodeCharmLtd/Font-Awesome-SVG-PNG</dc:source>
        <dc:creator>
          <cc:Agent>
            <dc:title>Font Awesome</dc:title>
          </cc:Agent>
        </dc:creator>
      </cc:Work>
    </rdf:RDF>
  </metadata>
  <defs
     id="defs3030" />
  <sodipodi:namedview
     pagecolor="#ffffff"
     bordercolor="#666666"
     borderopacity="1"
     objecttolerance="10"
     gridtolerance="10"
     guidetolerance="10"
     inkscape:pageopacity="0"
     inkscape:pageshadow="2"
     inkscape:window-width="1729"
     inkscape:window-height="1030"
     id="namedview3028"
     showgrid="false"
     inkscape:snap-global="true"
     inkscape:snap-bbox="true"
     inkscape:snap-page="true"
     inkscape:zoom="0.23046875"
     inkscape:cx="540.60813"
     inkscape:cy="616.94734"
     inkscape:window-x="139"
     inkscape:window-y="86"
     inkscape:window-maximized="0"
     inkscape:current-layer="svg3022" />
  <path
     style="fill:#000000"
     inkscape:connector-curvature="0"
     id="path3026"
     d="M 753.23077,-29.538551 V 1309.5384 q 0,32 -23.38461,55.3847 -23.38462,23.3846 -55.38462,23.3846 -32,0 -55.38462,-23.3846 L 209.23074,955.07689 h -322.46155 q -32.00001,0 -55.38462,-23.38462 -23.38462,-23.38461 -23.38462,-55.38462 V 403.69224 q 0,-32 23.38462,-55.38462 23.38461,-23.38461 55.38462,-23.38461 H 209.23074 L 619.07692,-84.92317 q 23.38462,-23.38462 55.38462,-23.38462 32,0 55.38462,23.38462 23.38461,23.384617 23.38461,55.384619 z M 1225.8462,639.99995 q 0,93.53846 -52.3077,174.15385 -52.3077,80.61539 -138.4616,115.07693 -12.3077,6.15385 -30.7692,6.15385 -31.99999,0 -55.38461,-22.76923 -23.38462,-22.76923 -23.38462,-56.00001 0,-25.84615 14.76924,-43.69231 14.76923,-17.84615 35.69231,-30.76923 20.92307,-12.92308 41.84618,-28.30769 20.923,-15.38462 35.6923,-43.69231 14.7692,-28.3077 14.7692,-70.15385 0,-41.84616 -14.7692,-70.15385 -14.7693,-28.3077 -35.6923,-43.69231 -20.92311,-15.38462 -41.84618,-28.3077 -20.92308,-12.92307 -35.69231,-30.76923 -14.76924,-17.84615 -14.76924,-43.69231 0,-33.23077 23.38462,-56 23.38462,-22.76923 55.38461,-22.76923 18.4615,0 30.7692,6.15384 86.1539,33.23077 138.4616,114.46155 52.3077,81.23077 52.3077,174.76924 z m 315.0769,0 q 0,188.3077 -104.6154,347.69233 -104.6154,159.38462 -276.9231,232.00002 -16,6.1538 -30.7692,6.1538 -33.2308,0 -56.6154,-23.3846 -23.3846,-23.3846 -23.3846,-55.3846 0,-48 48,-72.6154 68.9231,-35.6923 93.5385,-54.1538 91.0769,-66.46158 142.1538,-166.76928 51.077,-100.3077 51.077,-213.53847 0,-113.23078 -51.077,-213.53848 -51.0769,-100.30769 -142.1538,-166.76924 -24.6154,-18.46154 -93.5385,-54.15384 -48,-24.61539 -48,-72.61539 0,-32.00001 23.3846,-55.384622 23.3846,-23.384617 55.3846,-23.384617 16,0 32,6.153847 172.3077,72.615392 276.9231,232.000012 104.6154,159.38463 104.6154,347.69233 z m 315.077,0 q 0,283.07694 -156.3077,520.00005 -156.3077,236.9231 -416.0001,348.9231 -16,6.1538 -32,6.1538 -32,0 -55.3846,-23.3846 -23.3846,-23.3846 -23.3846,-55.3846 0,-44.3077 48,-72.6154 8.6154,-4.9231 27.6923,-12.9231 19.0769,-8 27.6923,-12.9231 56.6154,-30.7692 100.9231,-62.7692 151.3846,-112 236.3077,-279.38462 84.9231,-167.38463 84.9231,-355.69233 0,-188.3077 -84.9231,-355.69233 Q 1528.6154,116.923 1377.2308,4.9229892 1332.9231,-27.077013 1276.3077,-57.846245 q -8.6154,-4.923077 -27.6923,-12.923078 -19.0769,-8 -27.6923,-12.923077 -48,-28.30769 -48,-72.61539 0,-32 23.3846,-55.38462 23.3846,-23.38461 55.3846,-23.38461 16,0 32,6.15384 259.6924,112.00001 416.0001,348.9231 156.3077,236.92309 156.3077,520.00003 z" />
</svg>
